<svg width="14" height="14" viewBox="0 0 14 14" fill="none" xmlns="http://www.w3.org/2000/svg">
<path d="M0.927438 3.23154C0.622075 2.94802 0.470215 2.59708 0.470215 2.17952C0.470215 1.76195 0.622887 1.39556 0.927438 1.11123C1.2328 0.827712 1.62588 0.685547 2.10747 0.685547C2.58907 0.685547 2.96672 0.827712 3.27127 1.11123C3.57663 1.39475 3.72849 1.75139 3.72849 2.17952C3.72849 2.60764 3.57582 2.94802 3.27127 3.23154C2.96591 3.51506 2.57851 3.65722 2.10747 3.65722C1.63643 3.65722 1.2328 3.51506 0.927438 3.23154ZM3.47186 4.85791V13.5503H0.72603V4.85791H3.47186Z" fill="#383D38"/>
<path d="M12.6123 5.71658C13.2108 6.36648 13.5097 7.25848 13.5097 8.39418V13.3968H10.9019V8.74674C10.9019 8.17402 10.7533 7.72884 10.4569 7.41201C10.1605 7.09519 9.76089 6.93595 9.26062 6.93595C8.76034 6.93595 8.36075 7.09438 8.06432 7.41201C7.7679 7.72884 7.61928 8.17402 7.61928 8.74674V13.3968H4.99609V4.83354H7.61928V5.96924C7.88484 5.59067 8.24301 5.29171 8.69294 5.07156C9.14286 4.85141 9.64882 4.74173 10.2116 4.74173C11.2138 4.74173 12.0146 5.06668 12.6123 5.71658Z" fill="#383D38"/>
</svg>
